<svg xmlns="http://www.w3.org/2000/svg" width="16" height="16" viewBox="0 0 16 16"><path d="M2,13 3,13 3,14 2,14 M3,12 4,12 4,13 3,13 M4,11 5,11 5,12 4,12 M5,10 6,10 6,11 5,11 M10,10 11,10 11,11 10,11 M11,11 12,11 12,12 11,12 M12,12 13,12 13,13 12,13 M13,13 14,13 14,14 13,14 M13,2 14,2 14,3 13,3 M12,3 13,3 13,4 12,4 M11,4 12,4 12,5 11,5 M10,5 11,5 11,6 10,6 M5,5 6,5 6,6 5,6 M4,4 5,4 5,5 4,5 M3,3 4,3 4,4 3,4 M2,2 3,2 3,3 2,3 M6,4 7,4 7,5 6,5 M6,5 7,5 7,6 6,6 M6,6 7,6 7,7 6,7 M5,6 6,6 6,7 5,7 M4,6 5,6 5,7 4,7 M9,4 10,4 10,5 9,5 M9,5 10,5 10,6 9,6 M9,6 10,6 10,7 9,7 M10,6 11,6 11,7 10,7 M11,6 12,6 12,7 11,7 M11,9 12,9 12,10 11,10 M10,9 11,9 11,10 10,10 M9,9 10,9 10,10 9,10 M9,10 10,10 10,11 9,11 M9,11 10,11 10,12 9,12 M6,11 7,11 7,12 6,12 M6,10 7,10 7,11 6,11 M6,9 7,9 7,10 6,10 M5,9 6,9 6,10 5,10 M4,9 5,9 5,10 4,10 " fill="#ffffff"></path></svg>