<svg xmlns="http://www.w3.org/2000/svg" width="16" height="16" viewBox="0 0 16 16"><path d="M6,2 7,2 7,3 6,3 M7,2 8,2 8,3 7,3 M6,4 7,4 7,5 6,5 M7,4 8,4 8,5 7,5 M6,6 7,6 7,7 6,7 M7,6 8,6 8,7 7,7 M8,6 9,6 9,7 8,7 M9,6 10,6 10,7 9,7 M10,6 11,6 11,7 10,7 M11,6 12,6 12,7 11,7 M11,8 12,8 12,9 11,9 M10,8 11,8 11,9 10,9 M9,8 10,8 10,9 9,9 M8,8 9,8 9,9 8,9 M7,8 8,8 8,9 7,9 M6,8 7,8 7,9 6,9 M11,10 12,10 12,11 11,11 M10,10 11,10 11,11 10,11 M9,10 10,10 10,11 9,11 M8,10 9,10 9,11 8,11 M7,10 8,10 8,11 7,11 M6,10 7,10 7,11 6,11 M3,12 4,12 4,13 3,13 M3,10 4,10 4,11 3,11 M3,8 4,8 4,9 3,9 M3,6 4,6 4,7 3,7 M3,4 4,4 4,5 3,5 M8,2 9,2 9,3 8,3 M8,4 9,4 9,5 8,5 " fill="#868188"></path><path d="M1,15 2,15 2,16 1,16 M2,15 3,15 3,16 2,16 M3,15 4,15 4,16 3,16 M4,15 5,15 5,16 4,16 M5,15 6,15 6,16 5,16 M6,15 7,15 7,16 6,16 M7,15 8,15 8,16 7,16 M8,15 9,15 9,16 8,16 M9,15 10,15 10,16 9,16 M10,15 11,15 11,16 10,16 M4,13 5,13 5,14 4,14 M5,13 6,13 6,14 5,14 M6,13 7,13 7,14 6,14 M7,13 8,13 8,14 7,14 M8,13 9,13 9,14 8,14 M9,13 10,13 10,14 9,14 M10,13 11,13 11,14 10,14 M11,13 12,13 12,14 11,14 M12,13 13,13 13,14 12,14 M13,13 14,13 14,14 13,14 M1,14 2,14 2,15 1,15 M1,11 2,11 2,12 1,12 M1,10 2,10 2,11 1,11 M1,9 2,9 2,10 1,10 M1,8 2,8 2,9 1,9 M1,7 2,7 2,8 1,8 M1,6 2,6 2,7 1,7 M1,5 2,5 2,6 1,6 M1,4 2,4 2,5 1,5 M1,3 2,3 2,4 1,4 M4,12 5,12 5,13 4,13 M4,11 5,11 5,12 4,12 M4,10 5,10 5,11 4,11 M4,9 5,9 5,10 4,10 M4,8 5,8 5,9 4,9 M4,7 5,7 5,8 4,8 M4,6 5,6 5,7 4,7 M4,5 5,5 5,6 4,6 M4,4 5,4 5,5 4,5 M4,3 5,3 5,4 4,4 M4,2 5,2 5,3 4,3 M4,1 5,1 5,2 4,2 M1,2 2,2 2,3 1,3 M4,0 5,0 5,1 4,1 M5,0 6,0 6,1 5,1 M6,0 7,0 7,1 6,1 M7,0 8,0 8,1 7,1 M8,0 9,0 9,1 8,1 M9,0 10,0 10,1 9,1 M10,0 11,0 11,1 10,1 M3,2 4,2 4,3 3,3 M2,2 3,2 3,3 2,3 M1,12 2,12 2,13 1,13 M1,13 2,13 2,14 1,14 M14,13 15,13 15,14 14,14 M14,12 15,12 15,13 14,13 M14,11 15,11 15,12 14,12 M14,10 15,10 15,11 14,11 M14,9 15,9 15,10 14,10 M14,8 15,8 15,9 14,9 M14,7 15,7 15,8 14,8 M14,6 15,6 15,7 14,7 M14,5 15,5 15,6 14,6 M14,4 15,4 15,5 14,5 M11,14 12,14 12,15 11,15 M11,15 12,15 12,16 11,16 M11,0 12,0 12,1 11,1 M12,1 13,1 13,2 12,2 M13,2 14,2 14,3 13,3 M14,3 15,3 15,4 14,4 M10,1 11,1 11,2 10,2 M10,2 11,2 11,3 10,3 M10,3 11,3 11,4 10,4 M13,4 14,4 14,5 13,5 M12,4 13,4 13,5 12,5 M11,4 12,4 12,5 11,5 M10,4 11,4 11,5 10,5 " fill="#000000"></path><path d="M3,3 4,3 4,4 3,4 M2,3 3,3 3,4 2,4 M2,4 3,4 3,5 2,5 M2,5 3,5 3,6 2,6 M2,6 3,6 3,7 2,7 M2,7 3,7 3,8 2,8 M2,8 3,8 3,9 2,9 M2,9 3,9 3,10 2,10 M2,10 3,10 3,11 2,11 M2,11 3,11 3,12 2,12 M2,12 3,12 3,13 2,13 M2,13 3,13 3,14 2,14 M2,14 3,14 3,15 2,15 M3,14 4,14 4,15 3,15 M4,14 5,14 5,15 4,15 M5,14 6,14 6,15 5,15 M6,14 7,14 7,15 6,15 M7,14 8,14 8,15 7,15 M8,14 9,14 9,15 8,15 M9,14 10,14 10,15 9,15 M3,13 4,13 4,14 3,14 M3,11 4,11 4,12 3,12 M3,9 4,9 4,10 3,10 M3,7 4,7 4,8 3,8 M3,5 4,5 4,6 3,6 M5,1 6,1 6,2 5,2 M6,1 7,1 7,2 6,2 M7,1 8,1 8,2 7,2 M8,1 9,1 9,2 8,2 M8,3 9,3 9,4 8,4 M8,5 9,5 9,6 8,6 M7,5 8,5 8,6 7,6 M6,5 7,5 7,6 6,6 M5,5 6,5 6,6 5,6 M5,4 6,4 6,5 5,5 M5,3 6,3 6,4 5,4 M5,2 6,2 6,3 5,3 M6,3 7,3 7,4 6,4 M7,3 8,3 8,4 7,4 M9,5 10,5 10,6 9,6 M10,5 11,5 11,6 10,6 M11,5 12,5 12,6 11,6 M12,5 13,5 13,6 12,6 M12,6 13,6 13,7 12,7 M12,7 13,7 13,8 12,8 M12,8 13,8 13,9 12,9 M12,9 13,9 13,10 12,10 M12,10 13,10 13,11 12,11 M12,11 13,11 13,12 12,12 M12,12 13,12 13,13 12,13 M11,12 12,12 12,13 11,13 M10,12 11,12 11,13 10,13 M9,12 10,12 10,13 9,13 M8,12 9,12 9,13 8,13 M7,12 8,12 8,13 7,13 M6,12 7,12 7,13 6,13 M5,12 6,12 6,13 5,13 M5,11 6,11 6,12 5,12 M5,10 6,10 6,11 5,11 M5,9 6,9 6,10 5,10 M5,8 6,8 6,9 5,9 M5,7 6,7 6,8 5,8 M5,6 6,6 6,7 5,7 M6,7 7,7 7,8 6,8 M7,7 8,7 8,8 7,8 M8,7 9,7 9,8 8,8 M9,7 10,7 10,8 9,8 M10,7 11,7 11,8 10,8 M11,7 12,7 12,8 11,8 M11,9 12,9 12,10 11,10 M10,9 11,9 11,10 10,10 M9,9 10,9 10,10 9,10 M8,9 9,9 9,10 8,10 M7,9 8,9 8,10 7,10 M6,9 7,9 7,10 6,10 M6,11 7,11 7,12 6,12 M7,11 8,11 8,12 7,12 M8,11 9,11 9,12 8,12 M9,11 10,11 10,12 9,12 M10,11 11,11 11,12 10,12 M11,11 12,11 12,12 11,12 M11,2 12,2 12,3 11,3 M13,5 14,5 14,6 13,6 M13,6 14,6 14,7 13,7 M13,7 14,7 14,8 13,8 M13,8 14,8 14,9 13,9 M13,9 14,9 14,10 13,10 M13,10 14,10 14,11 13,11 M13,11 14,11 14,12 13,12 M13,12 14,12 14,13 13,13 M10,14 11,14 11,15 10,15 M12,2 13,2 13,3 12,3 M11,1 12,1 12,2 11,2 M9,1 10,1 10,2 9,2 M9,2 10,2 10,3 9,3 M9,3 10,3 10,4 9,4 M9,4 10,4 10,5 9,5 M12,3 13,3 13,4 12,4 M11,3 12,3 12,4 11,4 M13,3 14,3 14,4 13,4 " fill="#ffffff"></path></svg>