<svg xmlns="http://www.w3.org/2000/svg" width="18" height="14" viewBox="0 0 18 14"><path d="M2,10 3,10 3,11 2,11M4,10 5,10 5,11 4,11" fill="#313038"><animate attributeName="d" dur="1s" repeatCount="indefinite" calcMode="discrete" values="M2,10 3,10 3,11 2,11M4,10 5,10 5,11 4,11;M2,10 3,10 3,11 2,11M4,10 5,10 5,11 4,11;"/></path><path d="M4,13 5,13 5,14 4,14M3,13 4,13 4,14 3,14M2,13 3,13 3,14 2,14" fill="#513920"><animate attributeName="d" dur="1s" repeatCount="indefinite" calcMode="discrete" values="M4,13 5,13 5,14 4,14M3,13 4,13 4,14 3,14M2,13 3,13 3,14 2,14;M4,13 5,13 5,14 4,14M3,13 4,13 4,14 3,14M2,13 3,13 3,14 2,14;"/></path><path d="M0,0 1,0 1,1 0,1M1,0 2,0 2,1 1,1M2,0 3,0 3,1 2,1M3,0 4,0 4,1 3,1M4,0 5,0 5,1 4,1M5,0 6,0 6,1 5,1M0,1 1,1 1,2 0,2M6,1 7,1 7,2 6,2M6,0 7,0 7,1 6,1" fill="#fffba6"><animate attributeName="d" dur="1s" repeatCount="indefinite" calcMode="discrete" values="M0,0 1,0 1,1 0,1M1,0 2,0 2,1 1,1M2,0 3,0 3,1 2,1M3,0 4,0 4,1 3,1M4,0 5,0 5,1 4,1M5,0 6,0 6,1 5,1M0,1 1,1 1,2 0,2M6,1 7,1 7,2 6,2M6,0 7,0 7,1 6,1;M0,0 1,0 1,1 0,1M1,0 2,0 2,1 1,1M2,0 3,0 3,1 2,1M3,0 4,0 4,1 3,1M4,0 5,0 5,1 4,1M5,0 6,0 6,1 5,1M0,1 1,1 1,2 0,2M6,1 7,1 7,2 6,2M6,0 7,0 7,1 6,1;"/></path><path d="M0,2 1,2 1,3 0,3M1,1 2,1 2,2 1,2M2,1 3,1 3,2 2,2M3,1 4,1 4,2 3,2M4,1 5,1 5,2 4,2M5,1 6,1 6,2 5,2M5,2 6,2 6,3 5,3M6,2 7,2 7,3 6,3M6,3 7,3 7,4 6,4M5,3 6,3 6,4 5,4M4,4 5,4 5,5 4,5M4,3 5,3 5,4 4,4M3,2 4,2 4,3 3,3M1,2 2,2 2,3 1,3M1,3 2,3 2,4 1,4M2,3 3,3 3,4 2,4M3,3 4,3 4,4 3,4M3,5 4,5 4,6 3,6M5,4 6,4 6,5 5,5M4,5 5,5 5,6 4,6M2,4 3,4 3,5 2,5M0,3 1,3 1,4 0,4M1,4 2,4 2,5 1,5M2,5 3,5 3,6 2,6M3,6 4,6 4,7 3,7M0,10 1,10 1,11 0,11M7,10 8,10 8,11 7,11" fill="#d29f93"><animate attributeName="d" dur="1s" repeatCount="indefinite" calcMode="discrete" values="M0,2 1,2 1,3 0,3M1,1 2,1 2,2 1,2M2,1 3,1 3,2 2,2M3,1 4,1 4,2 3,2M4,1 5,1 5,2 4,2M5,1 6,1 6,2 5,2M5,2 6,2 6,3 5,3M6,2 7,2 7,3 6,3M6,3 7,3 7,4 6,4M5,3 6,3 6,4 5,4M4,4 5,4 5,5 4,5M4,3 5,3 5,4 4,4M3,2 4,2 4,3 3,3M1,2 2,2 2,3 1,3M1,3 2,3 2,4 1,4M2,3 3,3 3,4 2,4M3,3 4,3 4,4 3,4M3,5 4,5 4,6 3,6M5,4 6,4 6,5 5,5M4,5 5,5 5,6 4,6M2,4 3,4 3,5 2,5M0,3 1,3 1,4 0,4M1,4 2,4 2,5 1,5M2,5 3,5 3,6 2,6M3,6 4,6 4,7 3,7M0,10 1,10 1,11 0,11M7,10 8,10 8,11 7,11;M0,2 1,2 1,3 0,3M1,1 2,1 2,2 1,2M2,1 3,1 3,2 2,2M3,1 4,1 4,2 3,2M4,1 5,1 5,2 4,2M5,1 6,1 6,2 5,2M5,2 6,2 6,3 5,3M6,2 7,2 7,3 6,3M6,3 7,3 7,4 6,4M5,3 6,3 6,4 5,4M4,4 5,4 5,5 4,5M4,3 5,3 5,4 4,4M3,2 4,2 4,3 3,3M1,2 2,2 2,3 1,3M1,3 2,3 2,4 1,4M2,3 3,3 3,4 2,4M3,3 4,3 4,4 3,4M3,5 4,5 4,6 3,6M5,4 6,4 6,5 5,5M4,5 5,5 5,6 4,6M2,4 3,4 3,5 2,5M0,3 1,3 1,4 0,4M1,4 2,4 2,5 1,5M2,5 3,5 3,6 2,6M3,6 4,6 4,7 3,7M0,10 1,10 1,11 0,11M7,6 8,6 8,7 7,7;"/></path><path d="M2,2 3,2 3,3 2,3M4,2 5,2 5,3 4,3" fill="#6cdeff"><animate attributeName="d" dur="1s" repeatCount="indefinite" calcMode="discrete" values="M2,2 3,2 3,3 2,3M4,2 5,2 5,3 4,3;M2,2 3,2 3,3 2,3M4,2 5,2 5,3 4,3;"/></path><path d="M3,4 4,4 4,5 3,5M10,12 11,12 11,13 10,13M9,13 10,13 10,14 9,14" fill="#f02400"><animate attributeName="d" dur="1s" repeatCount="indefinite" calcMode="discrete" values="M3,4 4,4 4,5 3,5M10,12 11,12 11,13 10,13M9,13 10,13 10,14 9,14;M10,12 11,12 11,13 10,13;"/></path><path d="M2,7 3,7 3,8 2,8M3,7 4,7 4,8 3,8M4,7 5,7 5,8 4,8M5,8 6,8 6,9 5,9M1,8 2,8 2,9 1,9M3,9 4,9 4,10 3,10M3,8 4,8 4,9 3,9M4,8 5,8 5,9 4,9M4,9 5,9 5,10 4,10M2,8 3,8 3,9 2,9M2,9 3,9 3,10 2,10M0,9 1,9 1,10 0,10M6,9 7,9 7,10 6,10" fill="#ff4ad2"><animate attributeName="d" dur="1s" repeatCount="indefinite" calcMode="discrete" values="M2,7 3,7 3,8 2,8M3,7 4,7 4,8 3,8M4,7 5,7 5,8 4,8M5,8 6,8 6,9 5,9M1,8 2,8 2,9 1,9M3,9 4,9 4,10 3,10M3,8 4,8 4,9 3,9M4,8 5,8 5,9 4,9M4,9 5,9 5,10 4,10M2,8 3,8 3,9 2,9M2,9 3,9 3,10 2,10M0,9 1,9 1,10 0,10M6,9 7,9 7,10 6,10;M2,7 3,7 3,8 2,8M3,7 4,7 4,8 3,8M4,7 5,7 5,8 4,8M5,8 6,8 6,9 5,9M1,8 2,8 2,9 1,9M3,9 4,9 4,10 3,10M3,8 4,8 4,9 3,9M4,8 5,8 5,9 4,9M4,9 5,9 5,10 4,10M2,8 3,8 3,9 2,9M2,9 3,9 3,10 2,10M0,9 1,9 1,10 0,10M6,7 7,7 7,8 6,8;"/></path><path d="M3,10 4,10 4,11 3,11" fill="#f9ec00"><animate attributeName="d" dur="1s" repeatCount="indefinite" calcMode="discrete" values="M3,10 4,10 4,11 3,11;M3,10 4,10 4,11 3,11;"/></path><path d="M2,12 3,12 3,13 2,13M2,11 3,11 3,12 2,12M3,11 4,11 4,12 3,12M3,12 4,12 4,13 3,13M4,12 5,12 5,13 4,13M4,11 5,11 5,12 4,12" fill="#4435ff"><animate attributeName="d" dur="1s" repeatCount="indefinite" calcMode="discrete" values="M2,12 3,12 3,13 2,13M2,11 3,11 3,12 2,12M3,11 4,11 4,12 3,12M3,12 4,12 4,13 3,13M4,12 5,12 5,13 4,13M4,11 5,11 5,12 4,12;M2,12 3,12 3,13 2,13M2,11 3,11 3,12 2,12M3,11 4,11 4,12 3,12M3,12 4,12 4,13 3,13M4,12 5,12 5,13 4,13M4,11 5,11 5,12 4,12;"/></path><path d="M9,10 10,10 10,11 9,11M9,11 10,11 10,12 9,12M10,11 11,11 11,12 10,12M10,10 11,10 11,11 10,11M11,11 12,11 12,12 11,12M11,12 12,12 12,13 11,13M12,13 13,13 13,14 12,14M15,13 16,13 16,14 15,14M12,12 13,12 13,13 12,13M13,12 14,12 14,13 13,13M14,12 15,12 15,13 14,13M15,12 16,12 16,13 15,13M16,11 17,11 17,12 16,12M17,10 18,10 18,11 17,11M15,11 16,11 16,12 15,12M14,11 15,11 15,12 14,12M13,11 14,11 14,12 13,12M12,11 13,11 13,12 12,12M11,10 12,10 12,11 11,11M11,9 12,9 12,10 11,10M12,8 13,8 13,9 12,9" fill="#ffffff"><animate attributeName="d" dur="1s" repeatCount="indefinite" calcMode="discrete" values="M9,10 10,10 10,11 9,11M9,11 10,11 10,12 9,12M10,11 11,11 11,12 10,12M10,10 11,10 11,11 10,11M11,11 12,11 12,12 11,12M11,12 12,12 12,13 11,13M12,13 13,13 13,14 12,14M15,13 16,13 16,14 15,14M12,12 13,12 13,13 12,13M13,12 14,12 14,13 13,13M14,12 15,12 15,13 14,13M15,12 16,12 16,13 15,13M16,11 17,11 17,12 16,12M17,10 18,10 18,11 17,11M15,11 16,11 16,12 15,12M14,11 15,11 15,12 14,12M13,11 14,11 14,12 13,12M12,11 13,11 13,12 12,12M11,10 12,10 12,11 11,11M11,9 12,9 12,10 11,10M12,8 13,8 13,9 12,9;M9,10 10,10 10,11 9,11M9,11 10,11 10,12 9,12M10,11 11,11 11,12 10,12M10,10 11,10 11,11 10,11M11,11 12,11 12,12 11,12M11,12 12,12 12,13 11,13M12,13 13,13 13,14 12,14M15,13 16,13 16,14 15,14M12,12 13,12 13,13 12,13M13,12 14,12 14,13 13,13M14,12 15,12 15,13 14,13M15,12 16,12 16,13 15,13M16,11 17,11 17,12 16,12M15,11 16,11 16,12 15,12M14,11 15,11 15,12 14,12M13,11 14,11 14,12 13,12M12,11 13,11 13,12 12,12M11,10 12,10 12,11 11,11M11,9 12,9 12,10 11,10M12,8 13,8 13,9 12,9M17,12 18,12 18,13 17,13M3,4 4,4 4,5 3,5;"/></path><path d="M10,9 11,9 11,10 10,10" fill="#a67340"><animate attributeName="d" dur="1s" repeatCount="indefinite" calcMode="discrete" values="M10,9 11,9 11,10 10,10;M10,9 11,9 11,10 10,10;"/></path></svg>