<svg xmlns="http://www.w3.org/2000/svg" width="20" height="20" viewBox="0 0 20 20"><path d="M0,19 1,19 1,20 0,20 M0,18 1,18 1,19 0,19 M1,19 2,19 2,20 1,20 M0,17 1,17 1,18 0,18 M2,19 3,19 3,20 2,20 M3,18 4,18 4,19 3,19 M4,17 5,17 5,18 4,18 M1,16 2,16 2,17 1,17 M2,15 3,15 3,16 2,16 M3,14 4,14 4,15 3,15 M4,13 5,13 5,14 4,14 M5,12 6,12 6,13 5,13 M6,11 7,11 7,12 6,12 M7,10 8,10 8,11 7,11 M8,9 9,9 9,10 8,10 M9,8 10,8 10,9 9,9 M10,7 11,7 11,8 10,8 M11,6 12,6 12,7 11,7 M12,5 13,5 13,6 12,6 M13,4 14,4 14,5 13,5 M14,3 15,3 15,4 14,4 M15,2 16,2 16,3 15,3 M16,1 17,1 17,2 16,2 M17,0 18,0 18,1 17,1 M18,1 19,1 19,2 18,2 M19,2 20,2 20,3 19,3 M18,3 19,3 19,4 18,4 M17,4 18,4 18,5 17,5 M16,5 17,5 17,6 16,6 M15,6 16,6 16,7 15,7 M14,7 15,7 15,8 14,8 M13,8 14,8 14,9 13,9 M12,9 13,9 13,10 12,10 M11,10 12,10 12,11 11,11 M10,11 11,11 11,12 10,12 M9,12 10,12 10,13 9,13 M8,13 9,13 9,14 8,14 M7,14 8,14 8,15 7,15 M6,15 7,15 7,16 6,16 M5,16 6,16 6,17 5,17 M1,18 2,18 2,19 1,19 " fill="#000000"></path></svg>