<svg xmlns="http://www.w3.org/2000/svg" width="16" height="16" viewBox="0 0 16 16"><path d="M0,15 1,15 1,16 0,16 M1,15 2,15 2,16 1,16 M2,15 3,15 3,16 2,16 M0,13 1,13 1,14 0,14 M12,1 13,1 13,2 12,2 M14,3 15,3 15,4 14,4 M0,11 1,11 1,12 0,12 M0,12 1,12 1,13 0,13 M3,15 4,15 4,16 3,16 M4,15 5,15 5,16 4,16 M15,4 16,4 16,5 15,5 M13,2 14,2 14,3 13,3 M11,0 12,0 12,1 11,1 M0,14 1,14 1,15 0,15 M1,14 2,14 2,15 1,15 M1,13 2,13 2,14 1,14 M2,14 3,14 3,15 2,15 M10,0 11,0 11,1 10,1 M15,5 16,5 16,6 15,6 M0,10 1,10 1,11 0,11 M1,9 2,9 2,10 1,10 M2,8 3,8 3,9 2,9 M3,7 4,7 4,8 3,8 M4,6 5,6 5,7 4,7 M5,5 6,5 6,6 5,6 M6,4 7,4 7,5 6,5 M7,3 8,3 8,4 7,4 M8,2 9,2 9,3 8,3 M9,1 10,1 10,2 9,2 M14,6 15,6 15,7 14,7 M13,7 14,7 14,8 13,8 M12,8 13,8 13,9 12,9 M11,9 12,9 12,10 11,10 M10,10 11,10 11,11 10,11 M9,11 10,11 10,12 9,12 M8,12 9,12 9,13 8,13 M7,13 8,13 8,14 7,14 M6,14 7,14 7,15 6,15 M5,15 6,15 6,16 5,16 " fill="#000000"></path><path d="M3,14 4,14 4,15 3,15 M4,14 5,14 5,15 4,15 M3,13 4,13 4,14 3,14 M2,13 3,13 3,14 2,14 M2,12 3,12 3,13 2,13 M1,12 2,12 2,13 1,13 M1,11 2,11 2,12 1,12 M1,10 2,10 2,11 1,11 M2,11 3,11 3,12 2,12 M3,12 4,12 4,13 3,13 M4,13 5,13 5,14 4,14 M5,14 6,14 6,15 5,15 " fill="#fffba6"></path><path d="M14,4 15,4 15,5 14,5 M14,5 15,5 15,6 14,6 M13,4 14,4 14,5 13,5 M12,3 13,3 13,4 12,4 M11,3 12,3 12,4 11,4 M11,2 12,2 12,3 11,3 M10,2 11,2 11,3 10,3 M10,1 11,1 11,2 10,2 M11,1 12,1 12,2 11,2 M12,2 13,2 13,3 12,3 M13,3 14,3 14,4 13,4 M9,2 10,2 10,3 9,3 M9,3 10,3 10,4 9,4 M10,3 11,3 11,4 10,4 M10,4 11,4 11,5 10,5 M11,4 12,4 12,5 11,5 M12,4 13,4 13,5 12,5 M13,5 14,5 14,6 13,6 M13,6 14,6 14,7 13,7 M12,6 13,6 13,7 12,7 M12,5 13,5 13,6 12,6 M11,5 12,5 12,6 11,6 " fill="#ff9c8a"></path><path d="M8,3 9,3 9,4 8,4 M8,4 9,4 9,5 8,5 M7,4 8,4 8,5 7,5 M8,5 9,5 9,6 8,6 M9,5 10,5 10,6 9,6 M9,6 10,6 10,7 9,7 M10,6 11,6 11,7 10,7 M10,7 11,7 11,8 10,8 M11,7 12,7 12,8 11,8 M11,8 12,8 12,9 11,9 M12,7 13,7 13,8 12,8 M11,6 12,6 12,7 11,7 M10,5 11,5 11,6 10,6 M9,4 10,4 10,5 9,5 " fill="#b8b5b9"></path><path d="M5,9 6,9 6,10 5,10 M5,10 6,10 6,11 5,11 M6,10 7,10 7,11 6,11 M6,9 7,9 7,10 6,10 M7,8 8,8 8,9 7,9 M7,9 8,9 8,10 7,10 M7,10 8,10 8,11 7,11 M8,9 9,9 9,10 8,10 M10,8 11,8 11,9 10,9 M10,9 11,9 11,10 10,10 M9,9 10,9 10,10 9,10 M9,10 10,10 10,11 9,11 M8,10 9,10 9,11 8,11 M8,11 9,11 9,12 8,12 M7,11 8,11 8,12 7,12 M7,12 8,12 8,13 7,13 M6,12 7,12 7,13 6,13 M6,13 7,13 7,14 6,14 M5,13 6,13 6,14 5,14 M5,12 6,12 6,13 5,13 M6,11 7,11 7,12 6,12 M5,11 6,11 6,12 5,12 M4,9 5,9 5,10 4,10 M6,8 7,8 7,9 6,9 M6,7 7,7 7,8 6,8 M6,6 7,6 7,7 6,7 M6,5 7,5 7,6 6,6 M7,5 8,5 8,6 7,6 M7,6 8,6 8,7 7,7 M7,7 8,7 8,8 7,8 M8,6 9,6 9,7 8,7 M8,7 9,7 9,8 8,8 M8,8 9,8 9,9 8,9 M9,8 10,8 10,9 9,9 M9,7 10,7 10,8 9,8 M5,6 6,6 6,7 5,7 M5,7 6,7 6,8 5,8 M5,8 6,8 6,9 5,9 M4,7 5,7 5,8 4,8 M4,8 5,8 5,9 4,9 M3,8 4,8 4,9 3,9 M3,9 4,9 4,10 3,10 M2,9 3,9 3,10 2,10 M2,10 3,10 3,11 2,11 M3,10 4,10 4,11 3,11 M3,11 4,11 4,12 3,12 M4,10 5,10 5,11 4,11 M4,11 5,11 5,12 4,12 M4,12 5,12 5,13 4,13 " fill="#b9af00"></path></svg>