<svg xmlns="http://www.w3.org/2000/svg" width="16" height="16" viewBox="0 0 16 16"><path d="M1,12 2,12 2,13 1,13 M1,13 2,13 2,14 1,14 M1,14 2,14 2,15 1,15 M2,14 3,14 3,15 2,15 M3,14 4,14 4,15 3,15 M2,13 3,13 3,14 2,14 M3,12 4,12 4,13 3,13 M4,11 5,11 5,12 4,12 M5,10 6,10 6,11 5,11 M10,10 11,10 11,11 10,11 M11,11 12,11 12,12 11,12 M12,12 13,12 13,13 12,13 M13,13 14,13 14,14 13,14 M14,14 15,14 15,15 14,15 M14,13 15,13 15,14 14,14 M13,14 14,14 14,15 13,15 M14,12 15,12 15,13 14,13 M12,14 13,14 13,15 12,15 M14,3 15,3 15,4 14,4 M14,2 15,2 15,3 14,3 M14,1 15,1 15,2 14,2 M13,2 14,2 14,3 13,3 M12,3 13,3 13,4 12,4 M11,4 12,4 12,5 11,5 M10,5 11,5 11,6 10,6 M5,5 6,5 6,6 5,6 M4,4 5,4 5,5 4,5 M3,3 4,3 4,4 3,4 M2,2 3,2 3,3 2,3 M1,2 2,2 2,3 1,3 M1,3 2,3 2,4 1,4 M1,1 2,1 2,2 1,2 M2,1 3,1 3,2 2,2 M3,1 4,1 4,2 3,2 M13,1 14,1 14,2 13,2 M12,1 13,1 13,2 12,2 " fill="#ffffff"></path></svg>