<svg xmlns="http://www.w3.org/2000/svg" width="55" height="7" viewBox="0 0 55 7"><path d="M0,1 1,1 1,2 0,2M1,0 2,0 2,1 1,1M2,0 3,0 3,1 2,1M3,0 4,0 4,1 3,1M1,2 2,2 2,3 1,3M2,2 3,2 3,3 2,3M3,3 4,3 4,4 3,4M2,4 3,4 3,5 2,5M1,4 2,4 2,5 1,5M0,4 1,4 1,5 0,5M5,0 6,0 6,1 5,1M5,1 6,1 6,2 5,2M6,2 7,2 7,3 6,3M6,3 7,3 7,4 6,4M7,4 8,4 8,5 7,5M8,3 9,3 9,4 8,4M8,2 9,2 9,3 8,3M9,1 10,1 10,2 9,2M9,0 10,0 10,1 9,1M12,0 13,0 13,1 12,1M13,0 14,0 14,1 13,1M11,1 12,1 12,2 11,2M11,2 12,2 12,3 11,3M11,3 12,3 12,4 11,4M12,4 13,4 13,5 12,5M13,4 14,4 14,5 13,5M14,3 15,3 15,4 14,4M14,2 15,2 15,3 14,3M13,2 14,2 14,3 13,3M16,4 17,4 17,5 16,5M16,3 17,3 17,4 16,4M16,2 17,2 17,3 16,3M16,1 17,1 17,2 16,2M16,0 17,0 17,1 16,1M17,0 18,0 18,1 17,1M18,0 19,0 19,1 18,1M19,1 20,1 20,2 19,2M18,2 19,2 19,3 18,3M17,2 18,2 18,3 17,3M21,0 22,0 22,1 21,1M22,0 23,0 23,1 22,1M23,0 24,0 24,1 23,1M22,1 23,1 23,2 22,2M22,2 23,2 23,3 22,3M22,3 23,3 23,4 22,4M21,4 22,4 22,5 21,5M22,4 23,4 23,5 22,5M23,4 24,4 24,5 23,5M25,0 26,0 26,1 25,1M25,1 26,1 26,2 25,2M26,2 27,2 27,3 26,3M27,2 28,2 28,3 27,3M28,0 29,0 29,1 28,1M28,1 29,1 29,2 28,2M28,3 29,3 29,4 28,4M28,4 29,4 29,5 28,5M25,3 26,3 26,4 25,4M25,4 26,4 26,5 25,5M30,0 31,0 31,1 30,1M30,1 31,1 31,2 30,2M30,2 31,2 31,3 30,3M30,3 31,3 31,4 30,4M30,4 31,4 31,5 30,5M31,0 32,0 32,1 31,1M32,0 33,0 33,1 32,1M33,0 34,0 34,1 33,1M31,2 32,2 32,3 31,3M32,2 33,2 33,3 32,3M31,4 32,4 32,5 31,5M32,4 33,4 33,5 32,5M33,4 34,4 34,5 33,5M35,0 36,0 36,1 35,1M35,1 36,1 36,2 35,2M35,2 36,2 36,3 35,3M35,3 36,3 36,4 35,4M35,4 36,4 36,5 35,5M36,4 37,4 37,5 36,5M37,4 38,4 38,5 37,5M38,4 39,4 39,5 38,5M40,4 41,4 41,5 40,5M40,3 41,3 41,4 40,4M40,2 41,2 41,3 40,3M40,1 41,1 41,2 40,2M41,0 42,0 42,1 41,1M42,0 43,0 43,1 42,1M43,1 44,1 44,2 43,2M43,2 44,2 44,3 43,3M43,3 44,3 44,4 43,4M43,4 44,4 44,5 43,5M41,2 42,2 42,3 41,3M42,2 43,2 43,3 42,3M45,4 46,4 46,5 45,5M45,3 46,3 46,4 45,4M45,2 46,2 46,3 45,3M45,1 46,1 46,2 45,2M45,0 46,0 46,1 45,1M47,0 48,0 48,1 47,1M46,0 47,0 47,1 46,1M48,1 49,1 49,2 48,2M47,2 48,2 48,3 47,3M46,2 47,2 47,3 46,3M47,3 48,3 48,4 47,4M48,4 49,4 49,5 48,5M50,0 51,0 51,1 50,1M51,0 52,0 52,1 51,1M52,0 53,0 53,1 52,1M53,0 54,0 54,1 53,1M52,1 53,1 53,2 52,2M52,2 53,2 53,3 52,3M52,3 53,3 53,4 52,4M52,4 53,4 53,5 52,5M54,0 55,0 55,1 54,1" fill="#ffffff" ><animate attributeName="d" dur="3s" repeatCount="2" fill="freeze" calcMode="discrete" values="M0,1 1,1 1,2 0,2M1,0 2,0 2,1 1,1M2,0 3,0 3,1 2,1M3,0 4,0 4,1 3,1M1,2 2,2 2,3 1,3M2,2 3,2 3,3 2,3M3,3 4,3 4,4 3,4M2,4 3,4 3,5 2,5M1,4 2,4 2,5 1,5M0,4 1,4 1,5 0,5M5,0 6,0 6,1 5,1M5,1 6,1 6,2 5,2M6,2 7,2 7,3 6,3M6,3 7,3 7,4 6,4M7,4 8,4 8,5 7,5M8,3 9,3 9,4 8,4M8,2 9,2 9,3 8,3M9,1 10,1 10,2 9,2M9,0 10,0 10,1 9,1M12,0 13,0 13,1 12,1M13,0 14,0 14,1 13,1M11,1 12,1 12,2 11,2M11,2 12,2 12,3 11,3M11,3 12,3 12,4 11,4M12,4 13,4 13,5 12,5M13,4 14,4 14,5 13,5M14,3 15,3 15,4 14,4M14,2 15,2 15,3 14,3M13,2 14,2 14,3 13,3M16,4 17,4 17,5 16,5M16,3 17,3 17,4 16,4M16,2 17,2 17,3 16,3M16,1 17,1 17,2 16,2M16,0 17,0 17,1 16,1M17,0 18,0 18,1 17,1M18,0 19,0 19,1 18,1M19,1 20,1 20,2 19,2M18,2 19,2 19,3 18,3M17,2 18,2 18,3 17,3M21,0 22,0 22,1 21,1M22,0 23,0 23,1 22,1M23,0 24,0 24,1 23,1M22,1 23,1 23,2 22,2M22,2 23,2 23,3 22,3M22,3 23,3 23,4 22,4M21,4 22,4 22,5 21,5M22,4 23,4 23,5 22,5M23,4 24,4 24,5 23,5M25,0 26,0 26,1 25,1M25,1 26,1 26,2 25,2M26,2 27,2 27,3 26,3M27,2 28,2 28,3 27,3M28,0 29,0 29,1 28,1M28,1 29,1 29,2 28,2M28,3 29,3 29,4 28,4M28,4 29,4 29,5 28,5M25,3 26,3 26,4 25,4M25,4 26,4 26,5 25,5M30,0 31,0 31,1 30,1M30,1 31,1 31,2 30,2M30,2 31,2 31,3 30,3M30,3 31,3 31,4 30,4M30,4 31,4 31,5 30,5M31,0 32,0 32,1 31,1M32,0 33,0 33,1 32,1M33,0 34,0 34,1 33,1M31,2 32,2 32,3 31,3M32,2 33,2 33,3 32,3M31,4 32,4 32,5 31,5M32,4 33,4 33,5 32,5M33,4 34,4 34,5 33,5M35,0 36,0 36,1 35,1M35,1 36,1 36,2 35,2M35,2 36,2 36,3 35,3M35,3 36,3 36,4 35,4M35,4 36,4 36,5 35,5M36,4 37,4 37,5 36,5M37,4 38,4 38,5 37,5M38,4 39,4 39,5 38,5M40,4 41,4 41,5 40,5M40,3 41,3 41,4 40,4M40,2 41,2 41,3 40,3M40,1 41,1 41,2 40,2M41,0 42,0 42,1 41,1M42,0 43,0 43,1 42,1M43,1 44,1 44,2 43,2M43,2 44,2 44,3 43,3M43,3 44,3 44,4 43,4M43,4 44,4 44,5 43,5M41,2 42,2 42,3 41,3M42,2 43,2 43,3 42,3M45,4 46,4 46,5 45,5M45,3 46,3 46,4 45,4M45,2 46,2 46,3 45,3M45,1 46,1 46,2 45,2M45,0 46,0 46,1 45,1M47,0 48,0 48,1 47,1M46,0 47,0 47,1 46,1M48,1 49,1 49,2 48,2M47,2 48,2 48,3 47,3M46,2 47,2 47,3 46,3M47,3 48,3 48,4 47,4M48,4 49,4 49,5 48,5M50,0 51,0 51,1 50,1M51,0 52,0 52,1 51,1M52,0 53,0 53,1 52,1M53,0 54,0 54,1 53,1M52,1 53,1 53,2 52,2M52,2 53,2 53,3 52,3M52,3 53,3 53,4 52,4M52,4 53,4 53,5 52,5M54,0 55,0 55,1 54,1;M0,1 1,1 1,2 0,2M1,0 2,0 2,1 1,1M2,0 3,0 3,1 2,1M3,0 4,0 4,1 3,1M1,2 2,2 2,3 1,3M2,2 3,2 3,3 2,3M3,3 4,3 4,4 3,4M2,4 3,4 3,5 2,5M1,4 2,4 2,5 1,5M0,4 1,4 1,5 0,5M5,0 6,0 6,1 5,1M5,1 6,1 6,2 5,2M6,2 7,2 7,3 6,3M6,3 7,3 7,4 6,4M7,4 8,4 8,5 7,5M8,3 9,3 9,4 8,4M8,2 9,2 9,3 8,3M9,1 10,1 10,2 9,2M9,0 10,0 10,1 9,1M12,0 13,0 13,1 12,1M13,0 14,0 14,1 13,1M11,1 12,1 12,2 11,2M11,2 12,2 12,3 11,3M11,3 12,3 12,4 11,4M12,4 13,4 13,5 12,5M13,4 14,4 14,5 13,5M14,3 15,3 15,4 14,4M14,2 15,2 15,3 14,3M13,2 14,2 14,3 13,3M16,4 17,4 17,5 16,5M16,3 17,3 17,4 16,4M16,2 17,2 17,3 16,3M16,1 17,1 17,2 16,2M16,0 17,0 17,1 16,1M17,0 18,0 18,1 17,1M18,0 19,0 19,1 18,1M19,1 20,1 20,2 19,2M18,2 19,2 19,3 18,3M17,2 18,2 18,3 17,3M21,0 22,0 22,1 21,1M22,0 23,0 23,1 22,1M23,0 24,0 24,1 23,1M22,1 23,1 23,2 22,2M22,2 23,2 23,3 22,3M22,3 23,3 23,4 22,4M21,4 22,4 22,5 21,5M22,4 23,4 23,5 22,5M23,4 24,4 24,5 23,5M25,0 26,0 26,1 25,1M25,1 26,1 26,2 25,2M26,2 27,2 27,3 26,3M27,2 28,2 28,3 27,3M28,0 29,0 29,1 28,1M28,1 29,1 29,2 28,2M28,3 29,3 29,4 28,4M28,4 29,4 29,5 28,5M25,3 26,3 26,4 25,4M25,4 26,4 26,5 25,5M30,0 31,0 31,1 30,1M30,1 31,1 31,2 30,2M30,2 31,2 31,3 30,3M30,3 31,3 31,4 30,4M30,4 31,4 31,5 30,5M31,0 32,0 32,1 31,1M32,0 33,0 33,1 32,1M33,0 34,0 34,1 33,1M31,2 32,2 32,3 31,3M32,2 33,2 33,3 32,3M31,4 32,4 32,5 31,5M32,4 33,4 33,5 32,5M33,4 34,4 34,5 33,5M35,0 36,0 36,1 35,1M35,1 36,1 36,2 35,2M35,2 36,2 36,3 35,3M35,3 36,3 36,4 35,4M35,4 36,4 36,5 35,5M36,4 37,4 37,5 36,5M37,4 38,4 38,5 37,5M38,4 39,4 39,5 38,5M40,4 41,4 41,5 40,5M40,3 41,3 41,4 40,4M40,2 41,2 41,3 40,3M40,1 41,1 41,2 40,2M41,0 42,0 42,1 41,1M42,0 43,0 43,1 42,1M43,1 44,1 44,2 43,2M43,2 44,2 44,3 43,3M43,3 44,3 44,4 43,4M43,4 44,4 44,5 43,5M41,2 42,2 42,3 41,3M42,2 43,2 43,3 42,3M45,4 46,4 46,5 45,5M45,3 46,3 46,4 45,4M45,2 46,2 46,3 45,3M45,1 46,1 46,2 45,2M45,0 46,0 46,1 45,1M47,0 48,0 48,1 47,1M46,0 47,0 47,1 46,1M48,1 49,1 49,2 48,2M47,2 48,2 48,3 47,3M46,2 47,2 47,3 46,3M47,3 48,3 48,4 47,4M48,4 49,4 49,5 48,5M50,0 51,0 51,1 50,1M51,0 52,0 52,1 51,1M52,0 53,0 53,1 52,1M53,0 54,0 54,1 53,1M52,1 53,1 53,2 52,2M52,2 53,2 53,3 52,3M52,3 53,3 53,4 52,4M52,4 53,4 53,5 52,5M54,0 55,0 55,1 54,1M0,6 1,6 1,7 0,7M1,6 2,6 2,7 1,7M2,6 3,6 3,7 2,7M3,6 4,6 4,7 3,7M4,6 5,6 5,7 4,7;M0,1 1,1 1,2 0,2M1,0 2,0 2,1 1,1M2,0 3,0 3,1 2,1M3,0 4,0 4,1 3,1M1,2 2,2 2,3 1,3M2,2 3,2 3,3 2,3M3,3 4,3 4,4 3,4M2,4 3,4 3,5 2,5M1,4 2,4 2,5 1,5M0,4 1,4 1,5 0,5M5,0 6,0 6,1 5,1M5,1 6,1 6,2 5,2M6,2 7,2 7,3 6,3M6,3 7,3 7,4 6,4M7,4 8,4 8,5 7,5M8,3 9,3 9,4 8,4M8,2 9,2 9,3 8,3M9,1 10,1 10,2 9,2M9,0 10,0 10,1 9,1M12,0 13,0 13,1 12,1M13,0 14,0 14,1 13,1M11,1 12,1 12,2 11,2M11,2 12,2 12,3 11,3M11,3 12,3 12,4 11,4M12,4 13,4 13,5 12,5M13,4 14,4 14,5 13,5M14,3 15,3 15,4 14,4M14,2 15,2 15,3 14,3M13,2 14,2 14,3 13,3M16,4 17,4 17,5 16,5M16,3 17,3 17,4 16,4M16,2 17,2 17,3 16,3M16,1 17,1 17,2 16,2M16,0 17,0 17,1 16,1M17,0 18,0 18,1 17,1M18,0 19,0 19,1 18,1M19,1 20,1 20,2 19,2M18,2 19,2 19,3 18,3M17,2 18,2 18,3 17,3M21,0 22,0 22,1 21,1M22,0 23,0 23,1 22,1M23,0 24,0 24,1 23,1M22,1 23,1 23,2 22,2M22,2 23,2 23,3 22,3M22,3 23,3 23,4 22,4M21,4 22,4 22,5 21,5M22,4 23,4 23,5 22,5M23,4 24,4 24,5 23,5M25,0 26,0 26,1 25,1M25,1 26,1 26,2 25,2M26,2 27,2 27,3 26,3M27,2 28,2 28,3 27,3M28,0 29,0 29,1 28,1M28,1 29,1 29,2 28,2M28,3 29,3 29,4 28,4M28,4 29,4 29,5 28,5M25,3 26,3 26,4 25,4M25,4 26,4 26,5 25,5M30,0 31,0 31,1 30,1M30,1 31,1 31,2 30,2M30,2 31,2 31,3 30,3M30,3 31,3 31,4 30,4M30,4 31,4 31,5 30,5M31,0 32,0 32,1 31,1M32,0 33,0 33,1 32,1M33,0 34,0 34,1 33,1M31,2 32,2 32,3 31,3M32,2 33,2 33,3 32,3M31,4 32,4 32,5 31,5M32,4 33,4 33,5 32,5M33,4 34,4 34,5 33,5M35,0 36,0 36,1 35,1M35,1 36,1 36,2 35,2M35,2 36,2 36,3 35,3M35,3 36,3 36,4 35,4M35,4 36,4 36,5 35,5M36,4 37,4 37,5 36,5M37,4 38,4 38,5 37,5M38,4 39,4 39,5 38,5M40,4 41,4 41,5 40,5M40,3 41,3 41,4 40,4M40,2 41,2 41,3 40,3M40,1 41,1 41,2 40,2M41,0 42,0 42,1 41,1M42,0 43,0 43,1 42,1M43,1 44,1 44,2 43,2M43,2 44,2 44,3 43,3M43,3 44,3 44,4 43,4M43,4 44,4 44,5 43,5M41,2 42,2 42,3 41,3M42,2 43,2 43,3 42,3M45,4 46,4 46,5 45,5M45,3 46,3 46,4 45,4M45,2 46,2 46,3 45,3M45,1 46,1 46,2 45,2M45,0 46,0 46,1 45,1M47,0 48,0 48,1 47,1M46,0 47,0 47,1 46,1M48,1 49,1 49,2 48,2M47,2 48,2 48,3 47,3M46,2 47,2 47,3 46,3M47,3 48,3 48,4 47,4M48,4 49,4 49,5 48,5M50,0 51,0 51,1 50,1M51,0 52,0 52,1 51,1M52,0 53,0 53,1 52,1M53,0 54,0 54,1 53,1M52,1 53,1 53,2 52,2M52,2 53,2 53,3 52,3M52,3 53,3 53,4 52,4M52,4 53,4 53,5 52,5M54,0 55,0 55,1 54,1M0,6 1,6 1,7 0,7M1,6 2,6 2,7 1,7M2,6 3,6 3,7 2,7M3,6 4,6 4,7 3,7M4,6 5,6 5,7 4,7M5,6 6,6 6,7 5,7M6,6 7,6 7,7 6,7M7,6 8,6 8,7 7,7M8,6 9,6 9,7 8,7M9,6 10,6 10,7 9,7;M0,1 1,1 1,2 0,2M1,0 2,0 2,1 1,1M2,0 3,0 3,1 2,1M3,0 4,0 4,1 3,1M1,2 2,2 2,3 1,3M2,2 3,2 3,3 2,3M3,3 4,3 4,4 3,4M2,4 3,4 3,5 2,5M1,4 2,4 2,5 1,5M0,4 1,4 1,5 0,5M5,0 6,0 6,1 5,1M5,1 6,1 6,2 5,2M6,2 7,2 7,3 6,3M6,3 7,3 7,4 6,4M7,4 8,4 8,5 7,5M8,3 9,3 9,4 8,4M8,2 9,2 9,3 8,3M9,1 10,1 10,2 9,2M9,0 10,0 10,1 9,1M12,0 13,0 13,1 12,1M13,0 14,0 14,1 13,1M11,1 12,1 12,2 11,2M11,2 12,2 12,3 11,3M11,3 12,3 12,4 11,4M12,4 13,4 13,5 12,5M13,4 14,4 14,5 13,5M14,3 15,3 15,4 14,4M14,2 15,2 15,3 14,3M13,2 14,2 14,3 13,3M16,4 17,4 17,5 16,5M16,3 17,3 17,4 16,4M16,2 17,2 17,3 16,3M16,1 17,1 17,2 16,2M16,0 17,0 17,1 16,1M17,0 18,0 18,1 17,1M18,0 19,0 19,1 18,1M19,1 20,1 20,2 19,2M18,2 19,2 19,3 18,3M17,2 18,2 18,3 17,3M21,0 22,0 22,1 21,1M22,0 23,0 23,1 22,1M23,0 24,0 24,1 23,1M22,1 23,1 23,2 22,2M22,2 23,2 23,3 22,3M22,3 23,3 23,4 22,4M21,4 22,4 22,5 21,5M22,4 23,4 23,5 22,5M23,4 24,4 24,5 23,5M25,0 26,0 26,1 25,1M25,1 26,1 26,2 25,2M26,2 27,2 27,3 26,3M27,2 28,2 28,3 27,3M28,0 29,0 29,1 28,1M28,1 29,1 29,2 28,2M28,3 29,3 29,4 28,4M28,4 29,4 29,5 28,5M25,3 26,3 26,4 25,4M25,4 26,4 26,5 25,5M30,0 31,0 31,1 30,1M30,1 31,1 31,2 30,2M30,2 31,2 31,3 30,3M30,3 31,3 31,4 30,4M30,4 31,4 31,5 30,5M31,0 32,0 32,1 31,1M32,0 33,0 33,1 32,1M33,0 34,0 34,1 33,1M31,2 32,2 32,3 31,3M32,2 33,2 33,3 32,3M31,4 32,4 32,5 31,5M32,4 33,4 33,5 32,5M33,4 34,4 34,5 33,5M35,0 36,0 36,1 35,1M35,1 36,1 36,2 35,2M35,2 36,2 36,3 35,3M35,3 36,3 36,4 35,4M35,4 36,4 36,5 35,5M36,4 37,4 37,5 36,5M37,4 38,4 38,5 37,5M38,4 39,4 39,5 38,5M40,4 41,4 41,5 40,5M40,3 41,3 41,4 40,4M40,2 41,2 41,3 40,3M40,1 41,1 41,2 40,2M41,0 42,0 42,1 41,1M42,0 43,0 43,1 42,1M43,1 44,1 44,2 43,2M43,2 44,2 44,3 43,3M43,3 44,3 44,4 43,4M43,4 44,4 44,5 43,5M41,2 42,2 42,3 41,3M42,2 43,2 43,3 42,3M45,4 46,4 46,5 45,5M45,3 46,3 46,4 45,4M45,2 46,2 46,3 45,3M45,1 46,1 46,2 45,2M45,0 46,0 46,1 45,1M47,0 48,0 48,1 47,1M46,0 47,0 47,1 46,1M48,1 49,1 49,2 48,2M47,2 48,2 48,3 47,3M46,2 47,2 47,3 46,3M47,3 48,3 48,4 47,4M48,4 49,4 49,5 48,5M50,0 51,0 51,1 50,1M51,0 52,0 52,1 51,1M52,0 53,0 53,1 52,1M53,0 54,0 54,1 53,1M52,1 53,1 53,2 52,2M52,2 53,2 53,3 52,3M52,3 53,3 53,4 52,4M52,4 53,4 53,5 52,5M54,0 55,0 55,1 54,1M0,6 1,6 1,7 0,7M1,6 2,6 2,7 1,7M2,6 3,6 3,7 2,7M3,6 4,6 4,7 3,7M4,6 5,6 5,7 4,7M5,6 6,6 6,7 5,7M6,6 7,6 7,7 6,7M7,6 8,6 8,7 7,7M8,6 9,6 9,7 8,7M9,6 10,6 10,7 9,7M10,6 11,6 11,7 10,7M11,6 12,6 12,7 11,7M12,6 13,6 13,7 12,7M13,6 14,6 14,7 13,7M14,6 15,6 15,7 14,7;M0,1 1,1 1,2 0,2M1,0 2,0 2,1 1,1M2,0 3,0 3,1 2,1M3,0 4,0 4,1 3,1M1,2 2,2 2,3 1,3M2,2 3,2 3,3 2,3M3,3 4,3 4,4 3,4M2,4 3,4 3,5 2,5M1,4 2,4 2,5 1,5M0,4 1,4 1,5 0,5M5,0 6,0 6,1 5,1M5,1 6,1 6,2 5,2M6,2 7,2 7,3 6,3M6,3 7,3 7,4 6,4M7,4 8,4 8,5 7,5M8,3 9,3 9,4 8,4M8,2 9,2 9,3 8,3M9,1 10,1 10,2 9,2M9,0 10,0 10,1 9,1M12,0 13,0 13,1 12,1M13,0 14,0 14,1 13,1M11,1 12,1 12,2 11,2M11,2 12,2 12,3 11,3M11,3 12,3 12,4 11,4M12,4 13,4 13,5 12,5M13,4 14,4 14,5 13,5M14,3 15,3 15,4 14,4M14,2 15,2 15,3 14,3M13,2 14,2 14,3 13,3M16,4 17,4 17,5 16,5M16,3 17,3 17,4 16,4M16,2 17,2 17,3 16,3M16,1 17,1 17,2 16,2M16,0 17,0 17,1 16,1M17,0 18,0 18,1 17,1M18,0 19,0 19,1 18,1M19,1 20,1 20,2 19,2M18,2 19,2 19,3 18,3M17,2 18,2 18,3 17,3M21,0 22,0 22,1 21,1M22,0 23,0 23,1 22,1M23,0 24,0 24,1 23,1M22,1 23,1 23,2 22,2M22,2 23,2 23,3 22,3M22,3 23,3 23,4 22,4M21,4 22,4 22,5 21,5M22,4 23,4 23,5 22,5M23,4 24,4 24,5 23,5M25,0 26,0 26,1 25,1M25,1 26,1 26,2 25,2M26,2 27,2 27,3 26,3M27,2 28,2 28,3 27,3M28,0 29,0 29,1 28,1M28,1 29,1 29,2 28,2M28,3 29,3 29,4 28,4M28,4 29,4 29,5 28,5M25,3 26,3 26,4 25,4M25,4 26,4 26,5 25,5M30,0 31,0 31,1 30,1M30,1 31,1 31,2 30,2M30,2 31,2 31,3 30,3M30,3 31,3 31,4 30,4M30,4 31,4 31,5 30,5M31,0 32,0 32,1 31,1M32,0 33,0 33,1 32,1M33,0 34,0 34,1 33,1M31,2 32,2 32,3 31,3M32,2 33,2 33,3 32,3M31,4 32,4 32,5 31,5M32,4 33,4 33,5 32,5M33,4 34,4 34,5 33,5M35,0 36,0 36,1 35,1M35,1 36,1 36,2 35,2M35,2 36,2 36,3 35,3M35,3 36,3 36,4 35,4M35,4 36,4 36,5 35,5M36,4 37,4 37,5 36,5M37,4 38,4 38,5 37,5M38,4 39,4 39,5 38,5M40,4 41,4 41,5 40,5M40,3 41,3 41,4 40,4M40,2 41,2 41,3 40,3M40,1 41,1 41,2 40,2M41,0 42,0 42,1 41,1M42,0 43,0 43,1 42,1M43,1 44,1 44,2 43,2M43,2 44,2 44,3 43,3M43,3 44,3 44,4 43,4M43,4 44,4 44,5 43,5M41,2 42,2 42,3 41,3M42,2 43,2 43,3 42,3M45,4 46,4 46,5 45,5M45,3 46,3 46,4 45,4M45,2 46,2 46,3 45,3M45,1 46,1 46,2 45,2M45,0 46,0 46,1 45,1M47,0 48,0 48,1 47,1M46,0 47,0 47,1 46,1M48,1 49,1 49,2 48,2M47,2 48,2 48,3 47,3M46,2 47,2 47,3 46,3M47,3 48,3 48,4 47,4M48,4 49,4 49,5 48,5M50,0 51,0 51,1 50,1M51,0 52,0 52,1 51,1M52,0 53,0 53,1 52,1M53,0 54,0 54,1 53,1M52,1 53,1 53,2 52,2M52,2 53,2 53,3 52,3M52,3 53,3 53,4 52,4M52,4 53,4 53,5 52,5M54,0 55,0 55,1 54,1M0,6 1,6 1,7 0,7M1,6 2,6 2,7 1,7M2,6 3,6 3,7 2,7M3,6 4,6 4,7 3,7M4,6 5,6 5,7 4,7M5,6 6,6 6,7 5,7M6,6 7,6 7,7 6,7M7,6 8,6 8,7 7,7M8,6 9,6 9,7 8,7M9,6 10,6 10,7 9,7M10,6 11,6 11,7 10,7M11,6 12,6 12,7 11,7M12,6 13,6 13,7 12,7M13,6 14,6 14,7 13,7M14,6 15,6 15,7 14,7M15,6 16,6 16,7 15,7M16,6 17,6 17,7 16,7M17,6 18,6 18,7 17,7M18,6 19,6 19,7 18,7M19,6 20,6 20,7 19,7;M0,1 1,1 1,2 0,2M1,0 2,0 2,1 1,1M2,0 3,0 3,1 2,1M3,0 4,0 4,1 3,1M1,2 2,2 2,3 1,3M2,2 3,2 3,3 2,3M3,3 4,3 4,4 3,4M2,4 3,4 3,5 2,5M1,4 2,4 2,5 1,5M0,4 1,4 1,5 0,5M5,0 6,0 6,1 5,1M5,1 6,1 6,2 5,2M6,2 7,2 7,3 6,3M6,3 7,3 7,4 6,4M7,4 8,4 8,5 7,5M8,3 9,3 9,4 8,4M8,2 9,2 9,3 8,3M9,1 10,1 10,2 9,2M9,0 10,0 10,1 9,1M12,0 13,0 13,1 12,1M13,0 14,0 14,1 13,1M11,1 12,1 12,2 11,2M11,2 12,2 12,3 11,3M11,3 12,3 12,4 11,4M12,4 13,4 13,5 12,5M13,4 14,4 14,5 13,5M14,3 15,3 15,4 14,4M14,2 15,2 15,3 14,3M13,2 14,2 14,3 13,3M16,4 17,4 17,5 16,5M16,3 17,3 17,4 16,4M16,2 17,2 17,3 16,3M16,1 17,1 17,2 16,2M16,0 17,0 17,1 16,1M17,0 18,0 18,1 17,1M18,0 19,0 19,1 18,1M19,1 20,1 20,2 19,2M18,2 19,2 19,3 18,3M17,2 18,2 18,3 17,3M21,0 22,0 22,1 21,1M22,0 23,0 23,1 22,1M23,0 24,0 24,1 23,1M22,1 23,1 23,2 22,2M22,2 23,2 23,3 22,3M22,3 23,3 23,4 22,4M21,4 22,4 22,5 21,5M22,4 23,4 23,5 22,5M23,4 24,4 24,5 23,5M25,0 26,0 26,1 25,1M25,1 26,1 26,2 25,2M26,2 27,2 27,3 26,3M27,2 28,2 28,3 27,3M28,0 29,0 29,1 28,1M28,1 29,1 29,2 28,2M28,3 29,3 29,4 28,4M28,4 29,4 29,5 28,5M25,3 26,3 26,4 25,4M25,4 26,4 26,5 25,5M30,0 31,0 31,1 30,1M30,1 31,1 31,2 30,2M30,2 31,2 31,3 30,3M30,3 31,3 31,4 30,4M30,4 31,4 31,5 30,5M31,0 32,0 32,1 31,1M32,0 33,0 33,1 32,1M33,0 34,0 34,1 33,1M31,2 32,2 32,3 31,3M32,2 33,2 33,3 32,3M31,4 32,4 32,5 31,5M32,4 33,4 33,5 32,5M33,4 34,4 34,5 33,5M35,0 36,0 36,1 35,1M35,1 36,1 36,2 35,2M35,2 36,2 36,3 35,3M35,3 36,3 36,4 35,4M35,4 36,4 36,5 35,5M36,4 37,4 37,5 36,5M37,4 38,4 38,5 37,5M38,4 39,4 39,5 38,5M40,4 41,4 41,5 40,5M40,3 41,3 41,4 40,4M40,2 41,2 41,3 40,3M40,1 41,1 41,2 40,2M41,0 42,0 42,1 41,1M42,0 43,0 43,1 42,1M43,1 44,1 44,2 43,2M43,2 44,2 44,3 43,3M43,3 44,3 44,4 43,4M43,4 44,4 44,5 43,5M41,2 42,2 42,3 41,3M42,2 43,2 43,3 42,3M45,4 46,4 46,5 45,5M45,3 46,3 46,4 45,4M45,2 46,2 46,3 45,3M45,1 46,1 46,2 45,2M45,0 46,0 46,1 45,1M47,0 48,0 48,1 47,1M46,0 47,0 47,1 46,1M48,1 49,1 49,2 48,2M47,2 48,2 48,3 47,3M46,2 47,2 47,3 46,3M47,3 48,3 48,4 47,4M48,4 49,4 49,5 48,5M50,0 51,0 51,1 50,1M51,0 52,0 52,1 51,1M52,0 53,0 53,1 52,1M53,0 54,0 54,1 53,1M52,1 53,1 53,2 52,2M52,2 53,2 53,3 52,3M52,3 53,3 53,4 52,4M52,4 53,4 53,5 52,5M54,0 55,0 55,1 54,1M0,6 1,6 1,7 0,7M1,6 2,6 2,7 1,7M2,6 3,6 3,7 2,7M3,6 4,6 4,7 3,7M4,6 5,6 5,7 4,7M5,6 6,6 6,7 5,7M6,6 7,6 7,7 6,7M7,6 8,6 8,7 7,7M8,6 9,6 9,7 8,7M9,6 10,6 10,7 9,7M10,6 11,6 11,7 10,7M11,6 12,6 12,7 11,7M12,6 13,6 13,7 12,7M13,6 14,6 14,7 13,7M14,6 15,6 15,7 14,7M15,6 16,6 16,7 15,7M16,6 17,6 17,7 16,7M17,6 18,6 18,7 17,7M18,6 19,6 19,7 18,7M19,6 20,6 20,7 19,7M20,6 21,6 21,7 20,7M21,6 22,6 22,7 21,7M22,6 23,6 23,7 22,7M23,6 24,6 24,7 23,7M24,6 25,6 25,7 24,7;M0,1 1,1 1,2 0,2M1,0 2,0 2,1 1,1M2,0 3,0 3,1 2,1M3,0 4,0 4,1 3,1M1,2 2,2 2,3 1,3M2,2 3,2 3,3 2,3M3,3 4,3 4,4 3,4M2,4 3,4 3,5 2,5M1,4 2,4 2,5 1,5M0,4 1,4 1,5 0,5M5,0 6,0 6,1 5,1M5,1 6,1 6,2 5,2M6,2 7,2 7,3 6,3M6,3 7,3 7,4 6,4M7,4 8,4 8,5 7,5M8,3 9,3 9,4 8,4M8,2 9,2 9,3 8,3M9,1 10,1 10,2 9,2M9,0 10,0 10,1 9,1M12,0 13,0 13,1 12,1M13,0 14,0 14,1 13,1M11,1 12,1 12,2 11,2M11,2 12,2 12,3 11,3M11,3 12,3 12,4 11,4M12,4 13,4 13,5 12,5M13,4 14,4 14,5 13,5M14,3 15,3 15,4 14,4M14,2 15,2 15,3 14,3M13,2 14,2 14,3 13,3M16,4 17,4 17,5 16,5M16,3 17,3 17,4 16,4M16,2 17,2 17,3 16,3M16,1 17,1 17,2 16,2M16,0 17,0 17,1 16,1M17,0 18,0 18,1 17,1M18,0 19,0 19,1 18,1M19,1 20,1 20,2 19,2M18,2 19,2 19,3 18,3M17,2 18,2 18,3 17,3M21,0 22,0 22,1 21,1M22,0 23,0 23,1 22,1M23,0 24,0 24,1 23,1M22,1 23,1 23,2 22,2M22,2 23,2 23,3 22,3M22,3 23,3 23,4 22,4M21,4 22,4 22,5 21,5M22,4 23,4 23,5 22,5M23,4 24,4 24,5 23,5M25,0 26,0 26,1 25,1M25,1 26,1 26,2 25,2M26,2 27,2 27,3 26,3M27,2 28,2 28,3 27,3M28,0 29,0 29,1 28,1M28,1 29,1 29,2 28,2M28,3 29,3 29,4 28,4M28,4 29,4 29,5 28,5M25,3 26,3 26,4 25,4M25,4 26,4 26,5 25,5M30,0 31,0 31,1 30,1M30,1 31,1 31,2 30,2M30,2 31,2 31,3 30,3M30,3 31,3 31,4 30,4M30,4 31,4 31,5 30,5M31,0 32,0 32,1 31,1M32,0 33,0 33,1 32,1M33,0 34,0 34,1 33,1M31,2 32,2 32,3 31,3M32,2 33,2 33,3 32,3M31,4 32,4 32,5 31,5M32,4 33,4 33,5 32,5M33,4 34,4 34,5 33,5M35,0 36,0 36,1 35,1M35,1 36,1 36,2 35,2M35,2 36,2 36,3 35,3M35,3 36,3 36,4 35,4M35,4 36,4 36,5 35,5M36,4 37,4 37,5 36,5M37,4 38,4 38,5 37,5M38,4 39,4 39,5 38,5M40,4 41,4 41,5 40,5M40,3 41,3 41,4 40,4M40,2 41,2 41,3 40,3M40,1 41,1 41,2 40,2M41,0 42,0 42,1 41,1M42,0 43,0 43,1 42,1M43,1 44,1 44,2 43,2M43,2 44,2 44,3 43,3M43,3 44,3 44,4 43,4M43,4 44,4 44,5 43,5M41,2 42,2 42,3 41,3M42,2 43,2 43,3 42,3M45,4 46,4 46,5 45,5M45,3 46,3 46,4 45,4M45,2 46,2 46,3 45,3M45,1 46,1 46,2 45,2M45,0 46,0 46,1 45,1M47,0 48,0 48,1 47,1M46,0 47,0 47,1 46,1M48,1 49,1 49,2 48,2M47,2 48,2 48,3 47,3M46,2 47,2 47,3 46,3M47,3 48,3 48,4 47,4M48,4 49,4 49,5 48,5M50,0 51,0 51,1 50,1M51,0 52,0 52,1 51,1M52,0 53,0 53,1 52,1M53,0 54,0 54,1 53,1M52,1 53,1 53,2 52,2M52,2 53,2 53,3 52,3M52,3 53,3 53,4 52,4M52,4 53,4 53,5 52,5M54,0 55,0 55,1 54,1M0,6 1,6 1,7 0,7M1,6 2,6 2,7 1,7M2,6 3,6 3,7 2,7M3,6 4,6 4,7 3,7M4,6 5,6 5,7 4,7M5,6 6,6 6,7 5,7M6,6 7,6 7,7 6,7M7,6 8,6 8,7 7,7M8,6 9,6 9,7 8,7M9,6 10,6 10,7 9,7M10,6 11,6 11,7 10,7M11,6 12,6 12,7 11,7M12,6 13,6 13,7 12,7M13,6 14,6 14,7 13,7M14,6 15,6 15,7 14,7M15,6 16,6 16,7 15,7M16,6 17,6 17,7 16,7M17,6 18,6 18,7 17,7M18,6 19,6 19,7 18,7M19,6 20,6 20,7 19,7M20,6 21,6 21,7 20,7M21,6 22,6 22,7 21,7M22,6 23,6 23,7 22,7M23,6 24,6 24,7 23,7M24,6 25,6 25,7 24,7M25,6 26,6 26,7 25,7M26,6 27,6 27,7 26,7M27,6 28,6 28,7 27,7M28,6 29,6 29,7 28,7M29,6 30,6 30,7 29,7;M0,1 1,1 1,2 0,2M1,0 2,0 2,1 1,1M2,0 3,0 3,1 2,1M3,0 4,0 4,1 3,1M1,2 2,2 2,3 1,3M2,2 3,2 3,3 2,3M3,3 4,3 4,4 3,4M2,4 3,4 3,5 2,5M1,4 2,4 2,5 1,5M0,4 1,4 1,5 0,5M5,0 6,0 6,1 5,1M5,1 6,1 6,2 5,2M6,2 7,2 7,3 6,3M6,3 7,3 7,4 6,4M7,4 8,4 8,5 7,5M8,3 9,3 9,4 8,4M8,2 9,2 9,3 8,3M9,1 10,1 10,2 9,2M9,0 10,0 10,1 9,1M12,0 13,0 13,1 12,1M13,0 14,0 14,1 13,1M11,1 12,1 12,2 11,2M11,2 12,2 12,3 11,3M11,3 12,3 12,4 11,4M12,4 13,4 13,5 12,5M13,4 14,4 14,5 13,5M14,3 15,3 15,4 14,4M14,2 15,2 15,3 14,3M13,2 14,2 14,3 13,3M16,4 17,4 17,5 16,5M16,3 17,3 17,4 16,4M16,2 17,2 17,3 16,3M16,1 17,1 17,2 16,2M16,0 17,0 17,1 16,1M17,0 18,0 18,1 17,1M18,0 19,0 19,1 18,1M19,1 20,1 20,2 19,2M18,2 19,2 19,3 18,3M17,2 18,2 18,3 17,3M21,0 22,0 22,1 21,1M22,0 23,0 23,1 22,1M23,0 24,0 24,1 23,1M22,1 23,1 23,2 22,2M22,2 23,2 23,3 22,3M22,3 23,3 23,4 22,4M21,4 22,4 22,5 21,5M22,4 23,4 23,5 22,5M23,4 24,4 24,5 23,5M25,0 26,0 26,1 25,1M25,1 26,1 26,2 25,2M26,2 27,2 27,3 26,3M27,2 28,2 28,3 27,3M28,0 29,0 29,1 28,1M28,1 29,1 29,2 28,2M28,3 29,3 29,4 28,4M28,4 29,4 29,5 28,5M25,3 26,3 26,4 25,4M25,4 26,4 26,5 25,5M30,0 31,0 31,1 30,1M30,1 31,1 31,2 30,2M30,2 31,2 31,3 30,3M30,3 31,3 31,4 30,4M30,4 31,4 31,5 30,5M31,0 32,0 32,1 31,1M32,0 33,0 33,1 32,1M33,0 34,0 34,1 33,1M31,2 32,2 32,3 31,3M32,2 33,2 33,3 32,3M31,4 32,4 32,5 31,5M32,4 33,4 33,5 32,5M33,4 34,4 34,5 33,5M35,0 36,0 36,1 35,1M35,1 36,1 36,2 35,2M35,2 36,2 36,3 35,3M35,3 36,3 36,4 35,4M35,4 36,4 36,5 35,5M36,4 37,4 37,5 36,5M37,4 38,4 38,5 37,5M38,4 39,4 39,5 38,5M40,4 41,4 41,5 40,5M40,3 41,3 41,4 40,4M40,2 41,2 41,3 40,3M40,1 41,1 41,2 40,2M41,0 42,0 42,1 41,1M42,0 43,0 43,1 42,1M43,1 44,1 44,2 43,2M43,2 44,2 44,3 43,3M43,3 44,3 44,4 43,4M43,4 44,4 44,5 43,5M41,2 42,2 42,3 41,3M42,2 43,2 43,3 42,3M45,4 46,4 46,5 45,5M45,3 46,3 46,4 45,4M45,2 46,2 46,3 45,3M45,1 46,1 46,2 45,2M45,0 46,0 46,1 45,1M47,0 48,0 48,1 47,1M46,0 47,0 47,1 46,1M48,1 49,1 49,2 48,2M47,2 48,2 48,3 47,3M46,2 47,2 47,3 46,3M47,3 48,3 48,4 47,4M48,4 49,4 49,5 48,5M50,0 51,0 51,1 50,1M51,0 52,0 52,1 51,1M52,0 53,0 53,1 52,1M53,0 54,0 54,1 53,1M52,1 53,1 53,2 52,2M52,2 53,2 53,3 52,3M52,3 53,3 53,4 52,4M52,4 53,4 53,5 52,5M54,0 55,0 55,1 54,1M0,6 1,6 1,7 0,7M1,6 2,6 2,7 1,7M2,6 3,6 3,7 2,7M3,6 4,6 4,7 3,7M4,6 5,6 5,7 4,7M5,6 6,6 6,7 5,7M6,6 7,6 7,7 6,7M7,6 8,6 8,7 7,7M8,6 9,6 9,7 8,7M9,6 10,6 10,7 9,7M10,6 11,6 11,7 10,7M11,6 12,6 12,7 11,7M12,6 13,6 13,7 12,7M13,6 14,6 14,7 13,7M14,6 15,6 15,7 14,7M15,6 16,6 16,7 15,7M16,6 17,6 17,7 16,7M17,6 18,6 18,7 17,7M18,6 19,6 19,7 18,7M19,6 20,6 20,7 19,7M20,6 21,6 21,7 20,7M21,6 22,6 22,7 21,7M22,6 23,6 23,7 22,7M23,6 24,6 24,7 23,7M24,6 25,6 25,7 24,7M25,6 26,6 26,7 25,7M26,6 27,6 27,7 26,7M27,6 28,6 28,7 27,7M28,6 29,6 29,7 28,7M29,6 30,6 30,7 29,7M30,6 31,6 31,7 30,7M31,6 32,6 32,7 31,7M32,6 33,6 33,7 32,7M33,6 34,6 34,7 33,7M34,6 35,6 35,7 34,7;M0,1 1,1 1,2 0,2M1,0 2,0 2,1 1,1M2,0 3,0 3,1 2,1M3,0 4,0 4,1 3,1M1,2 2,2 2,3 1,3M2,2 3,2 3,3 2,3M3,3 4,3 4,4 3,4M2,4 3,4 3,5 2,5M1,4 2,4 2,5 1,5M0,4 1,4 1,5 0,5M5,0 6,0 6,1 5,1M5,1 6,1 6,2 5,2M6,2 7,2 7,3 6,3M6,3 7,3 7,4 6,4M7,4 8,4 8,5 7,5M8,3 9,3 9,4 8,4M8,2 9,2 9,3 8,3M9,1 10,1 10,2 9,2M9,0 10,0 10,1 9,1M12,0 13,0 13,1 12,1M13,0 14,0 14,1 13,1M11,1 12,1 12,2 11,2M11,2 12,2 12,3 11,3M11,3 12,3 12,4 11,4M12,4 13,4 13,5 12,5M13,4 14,4 14,5 13,5M14,3 15,3 15,4 14,4M14,2 15,2 15,3 14,3M13,2 14,2 14,3 13,3M16,4 17,4 17,5 16,5M16,3 17,3 17,4 16,4M16,2 17,2 17,3 16,3M16,1 17,1 17,2 16,2M16,0 17,0 17,1 16,1M17,0 18,0 18,1 17,1M18,0 19,0 19,1 18,1M19,1 20,1 20,2 19,2M18,2 19,2 19,3 18,3M17,2 18,2 18,3 17,3M21,0 22,0 22,1 21,1M22,0 23,0 23,1 22,1M23,0 24,0 24,1 23,1M22,1 23,1 23,2 22,2M22,2 23,2 23,3 22,3M22,3 23,3 23,4 22,4M21,4 22,4 22,5 21,5M22,4 23,4 23,5 22,5M23,4 24,4 24,5 23,5M25,0 26,0 26,1 25,1M25,1 26,1 26,2 25,2M26,2 27,2 27,3 26,3M27,2 28,2 28,3 27,3M28,0 29,0 29,1 28,1M28,1 29,1 29,2 28,2M28,3 29,3 29,4 28,4M28,4 29,4 29,5 28,5M25,3 26,3 26,4 25,4M25,4 26,4 26,5 25,5M30,0 31,0 31,1 30,1M30,1 31,1 31,2 30,2M30,2 31,2 31,3 30,3M30,3 31,3 31,4 30,4M30,4 31,4 31,5 30,5M31,0 32,0 32,1 31,1M32,0 33,0 33,1 32,1M33,0 34,0 34,1 33,1M31,2 32,2 32,3 31,3M32,2 33,2 33,3 32,3M31,4 32,4 32,5 31,5M32,4 33,4 33,5 32,5M33,4 34,4 34,5 33,5M35,0 36,0 36,1 35,1M35,1 36,1 36,2 35,2M35,2 36,2 36,3 35,3M35,3 36,3 36,4 35,4M35,4 36,4 36,5 35,5M36,4 37,4 37,5 36,5M37,4 38,4 38,5 37,5M38,4 39,4 39,5 38,5M40,4 41,4 41,5 40,5M40,3 41,3 41,4 40,4M40,2 41,2 41,3 40,3M40,1 41,1 41,2 40,2M41,0 42,0 42,1 41,1M42,0 43,0 43,1 42,1M43,1 44,1 44,2 43,2M43,2 44,2 44,3 43,3M43,3 44,3 44,4 43,4M43,4 44,4 44,5 43,5M41,2 42,2 42,3 41,3M42,2 43,2 43,3 42,3M45,4 46,4 46,5 45,5M45,3 46,3 46,4 45,4M45,2 46,2 46,3 45,3M45,1 46,1 46,2 45,2M45,0 46,0 46,1 45,1M47,0 48,0 48,1 47,1M46,0 47,0 47,1 46,1M48,1 49,1 49,2 48,2M47,2 48,2 48,3 47,3M46,2 47,2 47,3 46,3M47,3 48,3 48,4 47,4M48,4 49,4 49,5 48,5M50,0 51,0 51,1 50,1M51,0 52,0 52,1 51,1M52,0 53,0 53,1 52,1M53,0 54,0 54,1 53,1M52,1 53,1 53,2 52,2M52,2 53,2 53,3 52,3M52,3 53,3 53,4 52,4M52,4 53,4 53,5 52,5M54,0 55,0 55,1 54,1M0,6 1,6 1,7 0,7M1,6 2,6 2,7 1,7M2,6 3,6 3,7 2,7M3,6 4,6 4,7 3,7M4,6 5,6 5,7 4,7M5,6 6,6 6,7 5,7M6,6 7,6 7,7 6,7M7,6 8,6 8,7 7,7M8,6 9,6 9,7 8,7M9,6 10,6 10,7 9,7M10,6 11,6 11,7 10,7M11,6 12,6 12,7 11,7M12,6 13,6 13,7 12,7M13,6 14,6 14,7 13,7M14,6 15,6 15,7 14,7M15,6 16,6 16,7 15,7M16,6 17,6 17,7 16,7M17,6 18,6 18,7 17,7M18,6 19,6 19,7 18,7M19,6 20,6 20,7 19,7M20,6 21,6 21,7 20,7M21,6 22,6 22,7 21,7M22,6 23,6 23,7 22,7M23,6 24,6 24,7 23,7M24,6 25,6 25,7 24,7M25,6 26,6 26,7 25,7M26,6 27,6 27,7 26,7M27,6 28,6 28,7 27,7M28,6 29,6 29,7 28,7M29,6 30,6 30,7 29,7M30,6 31,6 31,7 30,7M31,6 32,6 32,7 31,7M32,6 33,6 33,7 32,7M33,6 34,6 34,7 33,7M34,6 35,6 35,7 34,7M35,6 36,6 36,7 35,7M36,6 37,6 37,7 36,7M37,6 38,6 38,7 37,7M38,6 39,6 39,7 38,7M39,6 40,6 40,7 39,7;M0,1 1,1 1,2 0,2M1,0 2,0 2,1 1,1M2,0 3,0 3,1 2,1M3,0 4,0 4,1 3,1M1,2 2,2 2,3 1,3M2,2 3,2 3,3 2,3M3,3 4,3 4,4 3,4M2,4 3,4 3,5 2,5M1,4 2,4 2,5 1,5M0,4 1,4 1,5 0,5M5,0 6,0 6,1 5,1M5,1 6,1 6,2 5,2M6,2 7,2 7,3 6,3M6,3 7,3 7,4 6,4M7,4 8,4 8,5 7,5M8,3 9,3 9,4 8,4M8,2 9,2 9,3 8,3M9,1 10,1 10,2 9,2M9,0 10,0 10,1 9,1M12,0 13,0 13,1 12,1M13,0 14,0 14,1 13,1M11,1 12,1 12,2 11,2M11,2 12,2 12,3 11,3M11,3 12,3 12,4 11,4M12,4 13,4 13,5 12,5M13,4 14,4 14,5 13,5M14,3 15,3 15,4 14,4M14,2 15,2 15,3 14,3M13,2 14,2 14,3 13,3M16,4 17,4 17,5 16,5M16,3 17,3 17,4 16,4M16,2 17,2 17,3 16,3M16,1 17,1 17,2 16,2M16,0 17,0 17,1 16,1M17,0 18,0 18,1 17,1M18,0 19,0 19,1 18,1M19,1 20,1 20,2 19,2M18,2 19,2 19,3 18,3M17,2 18,2 18,3 17,3M21,0 22,0 22,1 21,1M22,0 23,0 23,1 22,1M23,0 24,0 24,1 23,1M22,1 23,1 23,2 22,2M22,2 23,2 23,3 22,3M22,3 23,3 23,4 22,4M21,4 22,4 22,5 21,5M22,4 23,4 23,5 22,5M23,4 24,4 24,5 23,5M25,0 26,0 26,1 25,1M25,1 26,1 26,2 25,2M26,2 27,2 27,3 26,3M27,2 28,2 28,3 27,3M28,0 29,0 29,1 28,1M28,1 29,1 29,2 28,2M28,3 29,3 29,4 28,4M28,4 29,4 29,5 28,5M25,3 26,3 26,4 25,4M25,4 26,4 26,5 25,5M30,0 31,0 31,1 30,1M30,1 31,1 31,2 30,2M30,2 31,2 31,3 30,3M30,3 31,3 31,4 30,4M30,4 31,4 31,5 30,5M31,0 32,0 32,1 31,1M32,0 33,0 33,1 32,1M33,0 34,0 34,1 33,1M31,2 32,2 32,3 31,3M32,2 33,2 33,3 32,3M31,4 32,4 32,5 31,5M32,4 33,4 33,5 32,5M33,4 34,4 34,5 33,5M35,0 36,0 36,1 35,1M35,1 36,1 36,2 35,2M35,2 36,2 36,3 35,3M35,3 36,3 36,4 35,4M35,4 36,4 36,5 35,5M36,4 37,4 37,5 36,5M37,4 38,4 38,5 37,5M38,4 39,4 39,5 38,5M40,4 41,4 41,5 40,5M40,3 41,3 41,4 40,4M40,2 41,2 41,3 40,3M40,1 41,1 41,2 40,2M41,0 42,0 42,1 41,1M42,0 43,0 43,1 42,1M43,1 44,1 44,2 43,2M43,2 44,2 44,3 43,3M43,3 44,3 44,4 43,4M43,4 44,4 44,5 43,5M41,2 42,2 42,3 41,3M42,2 43,2 43,3 42,3M45,4 46,4 46,5 45,5M45,3 46,3 46,4 45,4M45,2 46,2 46,3 45,3M45,1 46,1 46,2 45,2M45,0 46,0 46,1 45,1M47,0 48,0 48,1 47,1M46,0 47,0 47,1 46,1M48,1 49,1 49,2 48,2M47,2 48,2 48,3 47,3M46,2 47,2 47,3 46,3M47,3 48,3 48,4 47,4M48,4 49,4 49,5 48,5M50,0 51,0 51,1 50,1M51,0 52,0 52,1 51,1M52,0 53,0 53,1 52,1M53,0 54,0 54,1 53,1M52,1 53,1 53,2 52,2M52,2 53,2 53,3 52,3M52,3 53,3 53,4 52,4M52,4 53,4 53,5 52,5M54,0 55,0 55,1 54,1M0,6 1,6 1,7 0,7M1,6 2,6 2,7 1,7M2,6 3,6 3,7 2,7M3,6 4,6 4,7 3,7M4,6 5,6 5,7 4,7M5,6 6,6 6,7 5,7M6,6 7,6 7,7 6,7M7,6 8,6 8,7 7,7M8,6 9,6 9,7 8,7M9,6 10,6 10,7 9,7M10,6 11,6 11,7 10,7M11,6 12,6 12,7 11,7M12,6 13,6 13,7 12,7M13,6 14,6 14,7 13,7M14,6 15,6 15,7 14,7M15,6 16,6 16,7 15,7M16,6 17,6 17,7 16,7M17,6 18,6 18,7 17,7M18,6 19,6 19,7 18,7M19,6 20,6 20,7 19,7M20,6 21,6 21,7 20,7M21,6 22,6 22,7 21,7M22,6 23,6 23,7 22,7M23,6 24,6 24,7 23,7M24,6 25,6 25,7 24,7M25,6 26,6 26,7 25,7M26,6 27,6 27,7 26,7M27,6 28,6 28,7 27,7M28,6 29,6 29,7 28,7M29,6 30,6 30,7 29,7M30,6 31,6 31,7 30,7M31,6 32,6 32,7 31,7M32,6 33,6 33,7 32,7M33,6 34,6 34,7 33,7M34,6 35,6 35,7 34,7M35,6 36,6 36,7 35,7M36,6 37,6 37,7 36,7M37,6 38,6 38,7 37,7M38,6 39,6 39,7 38,7M39,6 40,6 40,7 39,7M40,6 41,6 41,7 40,7M41,6 42,6 42,7 41,7M42,6 43,6 43,7 42,7M43,6 44,6 44,7 43,7M44,6 45,6 45,7 44,7;M0,1 1,1 1,2 0,2M1,0 2,0 2,1 1,1M2,0 3,0 3,1 2,1M3,0 4,0 4,1 3,1M1,2 2,2 2,3 1,3M2,2 3,2 3,3 2,3M3,3 4,3 4,4 3,4M2,4 3,4 3,5 2,5M1,4 2,4 2,5 1,5M0,4 1,4 1,5 0,5M5,0 6,0 6,1 5,1M5,1 6,1 6,2 5,2M6,2 7,2 7,3 6,3M6,3 7,3 7,4 6,4M7,4 8,4 8,5 7,5M8,3 9,3 9,4 8,4M8,2 9,2 9,3 8,3M9,1 10,1 10,2 9,2M9,0 10,0 10,1 9,1M12,0 13,0 13,1 12,1M13,0 14,0 14,1 13,1M11,1 12,1 12,2 11,2M11,2 12,2 12,3 11,3M11,3 12,3 12,4 11,4M12,4 13,4 13,5 12,5M13,4 14,4 14,5 13,5M14,3 15,3 15,4 14,4M14,2 15,2 15,3 14,3M13,2 14,2 14,3 13,3M16,4 17,4 17,5 16,5M16,3 17,3 17,4 16,4M16,2 17,2 17,3 16,3M16,1 17,1 17,2 16,2M16,0 17,0 17,1 16,1M17,0 18,0 18,1 17,1M18,0 19,0 19,1 18,1M19,1 20,1 20,2 19,2M18,2 19,2 19,3 18,3M17,2 18,2 18,3 17,3M21,0 22,0 22,1 21,1M22,0 23,0 23,1 22,1M23,0 24,0 24,1 23,1M22,1 23,1 23,2 22,2M22,2 23,2 23,3 22,3M22,3 23,3 23,4 22,4M21,4 22,4 22,5 21,5M22,4 23,4 23,5 22,5M23,4 24,4 24,5 23,5M25,0 26,0 26,1 25,1M25,1 26,1 26,2 25,2M26,2 27,2 27,3 26,3M27,2 28,2 28,3 27,3M28,0 29,0 29,1 28,1M28,1 29,1 29,2 28,2M28,3 29,3 29,4 28,4M28,4 29,4 29,5 28,5M25,3 26,3 26,4 25,4M25,4 26,4 26,5 25,5M30,0 31,0 31,1 30,1M30,1 31,1 31,2 30,2M30,2 31,2 31,3 30,3M30,3 31,3 31,4 30,4M30,4 31,4 31,5 30,5M31,0 32,0 32,1 31,1M32,0 33,0 33,1 32,1M33,0 34,0 34,1 33,1M31,2 32,2 32,3 31,3M32,2 33,2 33,3 32,3M31,4 32,4 32,5 31,5M32,4 33,4 33,5 32,5M33,4 34,4 34,5 33,5M35,0 36,0 36,1 35,1M35,1 36,1 36,2 35,2M35,2 36,2 36,3 35,3M35,3 36,3 36,4 35,4M35,4 36,4 36,5 35,5M36,4 37,4 37,5 36,5M37,4 38,4 38,5 37,5M38,4 39,4 39,5 38,5M40,4 41,4 41,5 40,5M40,3 41,3 41,4 40,4M40,2 41,2 41,3 40,3M40,1 41,1 41,2 40,2M41,0 42,0 42,1 41,1M42,0 43,0 43,1 42,1M43,1 44,1 44,2 43,2M43,2 44,2 44,3 43,3M43,3 44,3 44,4 43,4M43,4 44,4 44,5 43,5M41,2 42,2 42,3 41,3M42,2 43,2 43,3 42,3M45,4 46,4 46,5 45,5M45,3 46,3 46,4 45,4M45,2 46,2 46,3 45,3M45,1 46,1 46,2 45,2M45,0 46,0 46,1 45,1M47,0 48,0 48,1 47,1M46,0 47,0 47,1 46,1M48,1 49,1 49,2 48,2M47,2 48,2 48,3 47,3M46,2 47,2 47,3 46,3M47,3 48,3 48,4 47,4M48,4 49,4 49,5 48,5M50,0 51,0 51,1 50,1M51,0 52,0 52,1 51,1M52,0 53,0 53,1 52,1M53,0 54,0 54,1 53,1M52,1 53,1 53,2 52,2M52,2 53,2 53,3 52,3M52,3 53,3 53,4 52,4M52,4 53,4 53,5 52,5M54,0 55,0 55,1 54,1M0,6 1,6 1,7 0,7M1,6 2,6 2,7 1,7M2,6 3,6 3,7 2,7M3,6 4,6 4,7 3,7M4,6 5,6 5,7 4,7M5,6 6,6 6,7 5,7M6,6 7,6 7,7 6,7M7,6 8,6 8,7 7,7M8,6 9,6 9,7 8,7M9,6 10,6 10,7 9,7M10,6 11,6 11,7 10,7M11,6 12,6 12,7 11,7M12,6 13,6 13,7 12,7M13,6 14,6 14,7 13,7M14,6 15,6 15,7 14,7M15,6 16,6 16,7 15,7M16,6 17,6 17,7 16,7M17,6 18,6 18,7 17,7M18,6 19,6 19,7 18,7M19,6 20,6 20,7 19,7M20,6 21,6 21,7 20,7M21,6 22,6 22,7 21,7M22,6 23,6 23,7 22,7M23,6 24,6 24,7 23,7M24,6 25,6 25,7 24,7M25,6 26,6 26,7 25,7M26,6 27,6 27,7 26,7M27,6 28,6 28,7 27,7M28,6 29,6 29,7 28,7M29,6 30,6 30,7 29,7M30,6 31,6 31,7 30,7M31,6 32,6 32,7 31,7M32,6 33,6 33,7 32,7M33,6 34,6 34,7 33,7M34,6 35,6 35,7 34,7M35,6 36,6 36,7 35,7M36,6 37,6 37,7 36,7M37,6 38,6 38,7 37,7M38,6 39,6 39,7 38,7M39,6 40,6 40,7 39,7M40,6 41,6 41,7 40,7M41,6 42,6 42,7 41,7M42,6 43,6 43,7 42,7M43,6 44,6 44,7 43,7M44,6 45,6 45,7 44,7M45,6 46,6 46,7 45,7M46,6 47,6 47,7 46,7M47,6 48,6 48,7 47,7M48,6 49,6 49,7 48,7M49,6 50,6 50,7 49,7;M0,1 1,1 1,2 0,2M1,0 2,0 2,1 1,1M2,0 3,0 3,1 2,1M3,0 4,0 4,1 3,1M1,2 2,2 2,3 1,3M2,2 3,2 3,3 2,3M3,3 4,3 4,4 3,4M2,4 3,4 3,5 2,5M1,4 2,4 2,5 1,5M0,4 1,4 1,5 0,5M5,0 6,0 6,1 5,1M5,1 6,1 6,2 5,2M6,2 7,2 7,3 6,3M6,3 7,3 7,4 6,4M7,4 8,4 8,5 7,5M8,3 9,3 9,4 8,4M8,2 9,2 9,3 8,3M9,1 10,1 10,2 9,2M9,0 10,0 10,1 9,1M12,0 13,0 13,1 12,1M13,0 14,0 14,1 13,1M11,1 12,1 12,2 11,2M11,2 12,2 12,3 11,3M11,3 12,3 12,4 11,4M12,4 13,4 13,5 12,5M13,4 14,4 14,5 13,5M14,3 15,3 15,4 14,4M14,2 15,2 15,3 14,3M13,2 14,2 14,3 13,3M16,4 17,4 17,5 16,5M16,3 17,3 17,4 16,4M16,2 17,2 17,3 16,3M16,1 17,1 17,2 16,2M16,0 17,0 17,1 16,1M17,0 18,0 18,1 17,1M18,0 19,0 19,1 18,1M19,1 20,1 20,2 19,2M18,2 19,2 19,3 18,3M17,2 18,2 18,3 17,3M21,0 22,0 22,1 21,1M22,0 23,0 23,1 22,1M23,0 24,0 24,1 23,1M22,1 23,1 23,2 22,2M22,2 23,2 23,3 22,3M22,3 23,3 23,4 22,4M21,4 22,4 22,5 21,5M22,4 23,4 23,5 22,5M23,4 24,4 24,5 23,5M25,0 26,0 26,1 25,1M25,1 26,1 26,2 25,2M26,2 27,2 27,3 26,3M27,2 28,2 28,3 27,3M28,0 29,0 29,1 28,1M28,1 29,1 29,2 28,2M28,3 29,3 29,4 28,4M28,4 29,4 29,5 28,5M25,3 26,3 26,4 25,4M25,4 26,4 26,5 25,5M30,0 31,0 31,1 30,1M30,1 31,1 31,2 30,2M30,2 31,2 31,3 30,3M30,3 31,3 31,4 30,4M30,4 31,4 31,5 30,5M31,0 32,0 32,1 31,1M32,0 33,0 33,1 32,1M33,0 34,0 34,1 33,1M31,2 32,2 32,3 31,3M32,2 33,2 33,3 32,3M31,4 32,4 32,5 31,5M32,4 33,4 33,5 32,5M33,4 34,4 34,5 33,5M35,0 36,0 36,1 35,1M35,1 36,1 36,2 35,2M35,2 36,2 36,3 35,3M35,3 36,3 36,4 35,4M35,4 36,4 36,5 35,5M36,4 37,4 37,5 36,5M37,4 38,4 38,5 37,5M38,4 39,4 39,5 38,5M40,4 41,4 41,5 40,5M40,3 41,3 41,4 40,4M40,2 41,2 41,3 40,3M40,1 41,1 41,2 40,2M41,0 42,0 42,1 41,1M42,0 43,0 43,1 42,1M43,1 44,1 44,2 43,2M43,2 44,2 44,3 43,3M43,3 44,3 44,4 43,4M43,4 44,4 44,5 43,5M41,2 42,2 42,3 41,3M42,2 43,2 43,3 42,3M45,4 46,4 46,5 45,5M45,3 46,3 46,4 45,4M45,2 46,2 46,3 45,3M45,1 46,1 46,2 45,2M45,0 46,0 46,1 45,1M47,0 48,0 48,1 47,1M46,0 47,0 47,1 46,1M48,1 49,1 49,2 48,2M47,2 48,2 48,3 47,3M46,2 47,2 47,3 46,3M47,3 48,3 48,4 47,4M48,4 49,4 49,5 48,5M50,0 51,0 51,1 50,1M51,0 52,0 52,1 51,1M52,0 53,0 53,1 52,1M53,0 54,0 54,1 53,1M52,1 53,1 53,2 52,2M52,2 53,2 53,3 52,3M52,3 53,3 53,4 52,4M52,4 53,4 53,5 52,5M54,0 55,0 55,1 54,1M0,6 1,6 1,7 0,7M1,6 2,6 2,7 1,7M2,6 3,6 3,7 2,7M3,6 4,6 4,7 3,7M4,6 5,6 5,7 4,7M5,6 6,6 6,7 5,7M6,6 7,6 7,7 6,7M7,6 8,6 8,7 7,7M8,6 9,6 9,7 8,7M9,6 10,6 10,7 9,7M10,6 11,6 11,7 10,7M11,6 12,6 12,7 11,7M12,6 13,6 13,7 12,7M13,6 14,6 14,7 13,7M14,6 15,6 15,7 14,7M15,6 16,6 16,7 15,7M16,6 17,6 17,7 16,7M17,6 18,6 18,7 17,7M18,6 19,6 19,7 18,7M19,6 20,6 20,7 19,7M20,6 21,6 21,7 20,7M21,6 22,6 22,7 21,7M22,6 23,6 23,7 22,7M23,6 24,6 24,7 23,7M24,6 25,6 25,7 24,7M25,6 26,6 26,7 25,7M26,6 27,6 27,7 26,7M27,6 28,6 28,7 27,7M28,6 29,6 29,7 28,7M29,6 30,6 30,7 29,7M30,6 31,6 31,7 30,7M31,6 32,6 32,7 31,7M32,6 33,6 33,7 32,7M33,6 34,6 34,7 33,7M34,6 35,6 35,7 34,7M35,6 36,6 36,7 35,7M36,6 37,6 37,7 36,7M37,6 38,6 38,7 37,7M38,6 39,6 39,7 38,7M39,6 40,6 40,7 39,7M40,6 41,6 41,7 40,7M41,6 42,6 42,7 41,7M42,6 43,6 43,7 42,7M43,6 44,6 44,7 43,7M44,6 45,6 45,7 44,7M45,6 46,6 46,7 45,7M46,6 47,6 47,7 46,7M47,6 48,6 48,7 47,7M48,6 49,6 49,7 48,7M49,6 50,6 50,7 49,7M50,6 51,6 51,7 50,7M51,6 52,6 52,7 51,7M52,6 53,6 53,7 52,7M53,6 54,6 54,7 53,7M54,6 55,6 55,7 54,7;"/></path></svg>